<svg width="25" height="26" xmlns="http://www.w3.org/2000/svg" xmlns:xlink="http://www.w3.org/1999/xlink"><defs><path d="M23.29 19.94a3.033 3.033 0 0 1 3.316 3.023A3.033 3.033 0 0 1 23.576 26a3.033 3.033 0 0 1-3.028-3.036c0-.422.085-.824.24-1.189h-5.53c.155.365.241.767.241 1.189A3.033 3.033 0 0 1 12.47 26a3.033 3.033 0 0 1-3.03-3.036c0-.45.098-.877.273-1.26-1.476-.297-2.2-1.49-2.2-3.141V3.694l-2.057-1.02c-1.103-.504-1.797-.851-2.083-1.042-.43-.285-.46-.766-.234-1.203.225-.437.806-.495 1.105-.374.112.046.34.156.686.33l3.129 1.502c.728.406 1.273.583 1.273 1.416V4.6h.098l16.93 2.279c.511.126.903.366 1.174.719.408.529.467.892.467 1.374v5.51c0 .997-1.229 2.705-2.727 2.705H11.676a5.493 5.493 0 0 1-2.344-.533V18.7c0 .828.685 1.24 1.82 1.24h1.031a3.06 3.06 0 0 1 .573 0H23.29zM9.347 6.464v8.186c0 .162.117.316.175.365.264.222.94.34 2.031.357l13.617-.036c.706 0 1.047-.718 1.047-1.02V8.748L9.347 6.463zm3.123 17.614c.613 0 1.11-.498 1.11-1.113s-.497-1.114-1.11-1.114c-.613 0-1.11.499-1.11 1.114 0 .615.497 1.113 1.11 1.113zm11.107 0c.613 0 1.11-.498 1.11-1.113s-.497-1.114-1.11-1.114c-.614 0-1.111.499-1.111 1.114 0 .615.497 1.113 1.11 1.113z" id="path-1"/></defs><g id="Category" stroke="none" stroke-width="1" fill="none" fill-rule="evenodd"><g id="header-cart" transform="translate(-3)"><path id="Rectangle" d="M0 0h30v30H0z"/><mask id="mask-2" fill="#fff"><use xlink:href="#path-1"/></mask><use id="Combined-Shape" fill="#FFF" xlink:href="#path-1"/></g></g></svg>