<svg width="24" height="25" xmlns="http://www.w3.org/2000/svg" xmlns:xlink="http://www.w3.org/1999/xlink"><defs><path d="M15 16.387c6.729 0 12 3.355 12 7.637v1.318c0 .577-.435 1.045-.972 1.045-.536 0-.971-.467-.971-1.045v-1.318c0-3.006-4.606-5.546-10.057-5.546-5.451 0-10.057 2.54-10.057 5.546v1.318c0 .578-.435 1.045-.971 1.045-.537 0-.972-.467-.972-1.045v-1.318c0-4.282 5.271-7.637 12-7.637zm6.134-8.57a6.106 6.106 0 0 1-6.047 6.996 6.054 6.054 0 0 1-3.62-1.202 6.06 6.06 0 0 1-2.4-4.004 6.106 6.106 0 0 1 6.928-6.928 6.057 6.057 0 0 1 3.418 1.72 6.057 6.057 0 0 1 1.72 3.418zm-5.447 4.851a4.004 4.004 0 0 0 3.37-4.542 3.977 3.977 0 0 0-3.37-3.37 4.003 4.003 0 0 0-1.174 0 4.004 4.004 0 0 0-3.37 4.543 3.973 3.973 0 0 0 1.574 2.626c.858.636 1.913.9 2.97.743z" id="path-1"/></defs><g id="Category" stroke="none" stroke-width="1" fill="none" fill-rule="evenodd"><g id="header-account" transform="translate(-3 -2)"><path id="Rectangle-7" d="M0 0h30v30H0z"/><mask id="mask-2" fill="#fff"><use xlink:href="#path-1"/></mask><use id="Combined-Shape" fill="#FFF" fill-rule="nonzero" xlink:href="#path-1"/></g></g></svg>