<svg width="22" height="22" xmlns="http://www.w3.org/2000/svg" xmlns:xlink="http://www.w3.org/1999/xlink"><defs><path d="M21.116 19.61l.048.044 4.571 4.571a1 1 0 0 1 0 1.414l-.096.096a1 1 0 0 1-1.414 0l-4.57-4.57a1.015 1.015 0 0 1-.046-.049 9.536 9.536 0 0 1-6 2.102c-2.567 0-4.98-1-6.795-2.814A9.546 9.546 0 0 1 4 13.609c0-2.567 1-4.98 2.814-6.795A9.546 9.546 0 0 1 13.61 4c2.567 0 4.98 1 6.795 2.814a9.546 9.546 0 0 1 2.814 6.795c0 2.208-.74 4.302-2.102 6zm-7.507 1.473c4.121 0 7.474-3.353 7.474-7.474s-3.353-7.474-7.474-7.474-7.474 3.353-7.474 7.474 3.353 7.474 7.474 7.474z" id="path-1"/></defs><g id="Category" stroke="none" stroke-width="1" fill="none" fill-rule="evenodd"><g id="header-search" transform="translate(-4 -4)"><path id="Rectangle" d="M0 0h30v30H0z"/><mask id="mask-2" fill="#fff"><use xlink:href="#path-1"/></mask><use id="Combined-Shape" fill="#FFF" fill-rule="nonzero" xlink:href="#path-1"/></g></g></svg>