<svg width="23" height="23" xmlns="http://www.w3.org/2000/svg"><g id="Category" stroke="none" stroke-width="1" fill="none" fill-rule="evenodd"><g id="instagram" transform="translate(-4 -4)"><path id="Rectangle-18" d="M0 0h30v30H0z"/><path d="M20.583 4.5H10.63c-3.38 0-6.13 2.75-6.13 6.13v9.953c0 3.38 2.75 6.13 6.13 6.13h9.953c3.38 0 6.13-2.75 6.13-6.13V10.63c0-3.38-2.75-6.13-6.13-6.13zm4.159 16.083a4.163 4.163 0 0 1-4.16 4.159H10.63a4.163 4.163 0 0 1-4.16-4.16V10.63a4.164 4.164 0 0 1 4.16-4.16h9.953a4.164 4.164 0 0 1 4.159 4.16v9.953zm-9.136-10.7a5.73 5.73 0 0 0-5.724 5.723 5.73 5.73 0 0 0 5.724 5.724 5.73 5.73 0 0 0 5.724-5.724 5.73 5.73 0 0 0-5.724-5.723zm0 9.476a3.757 3.757 0 0 1-3.753-3.753 3.757 3.757 0 0 1 3.753-3.753 3.757 3.757 0 0 1 3.753 3.753 3.757 3.757 0 0 1-3.753 3.753zM21.57 8.212a1.45 1.45 0 0 0-1.445 1.445c0 .38.155.753.424 1.022.268.268.641.423 1.021.423.381 0 .753-.155 1.022-.423.27-.27.423-.643.423-1.022 0-.38-.154-.754-.423-1.022a1.45 1.45 0 0 0-1.022-.423z" id="Combined-Shape" fill="#424242"/></g></g></svg>