<svg width="48" height="37" xmlns="http://www.w3.org/2000/svg"><g id="Category" stroke="none" stroke-width="1" fill="none" fill-rule="evenodd"><g id="mastercard" transform="translate(-4 -1)" fill-rule="nonzero"><path id="Rectangle-path" d="M.81 0h53.036v40H.81z"/><g id="Group-19" transform="translate(3.704 1.26)"><path d="M8.948 36.415v-2.403a1.392 1.392 0 0 0-.394-1.103 1.414 1.414 0 0 0-1.1-.42 1.594 1.594 0 0 0-1.371.681 1.415 1.415 0 0 0-1.292-.68c-.46-.02-.9.19-1.17.56v-.48h-.767v3.845h.767v-2.203a.893.893 0 0 1 .245-.728.908.908 0 0 1 .723-.274c.565 0 .888.36.888 1.002v2.203h.767v-2.203a.893.893 0 0 1 .245-.728.908.908 0 0 1 .724-.274c.565 0 .887.36.887 1.002v2.203h.848zm12.591-3.805h-1.412v-1.162h-.767v1.162h-.807v.68h.807v1.803c0 .881.323 1.402 1.291 1.402a2.27 2.27 0 0 0 1.05-.28l-.243-.681c-.217.135-.47.204-.726.2a.567.567 0 0 1-.459-.176.558.558 0 0 1-.146-.465V33.25h1.412v-.64zm7.183-.12a1.213 1.213 0 0 0-1.049.56v-.48h-.767v3.845h.767v-2.163c0-.641.323-1.042.848-1.042.177.007.353.034.524.08l.242-.72a2.743 2.743 0 0 0-.565-.08zm-10.855.4a2.785 2.785 0 0 0-1.574-.4c-.969 0-1.574.44-1.574 1.201 0 .64.444 1.001 1.291 1.122l.404.04c.444.08.726.24.726.44 0 .28-.323.48-.928.48a2.138 2.138 0 0 1-1.291-.4l-.404.601c.49.322 1.067.49 1.655.48 1.13 0 1.735-.52 1.735-1.24 0-.722-.484-1.002-1.332-1.122l-.403-.04c-.364-.04-.686-.16-.686-.401 0-.24.322-.48.766-.48.423.018.836.127 1.211.32l.404-.601zm11.743 1.602c-.033.54.169 1.07.555 1.453a1.91 1.91 0 0 0 1.463.55 2.03 2.03 0 0 0 1.372-.44l-.403-.602a1.619 1.619 0 0 1-1.01.36 1.29 1.29 0 0 1-1.193-1.28c0-.672.52-1.23 1.194-1.283.368.003.723.13 1.009.361l.403-.6a2.028 2.028 0 0 0-1.372-.441 1.816 1.816 0 0 0-1.467.487 1.784 1.784 0 0 0-.55 1.435zm-5.448-2.003c-1.13 0-1.897.802-1.897 2.003a1.876 1.876 0 0 0 .538 1.44c.378.382.901.587 1.44.563a2.482 2.482 0 0 0 1.574-.52l-.404-.562c-.324.25-.72.39-1.13.4a1.131 1.131 0 0 1-1.17-1h2.865v-.32c0-1.202-.726-2.004-1.816-2.004zm0 .721a.969.969 0 0 1 .713.266c.19.182.297.433.296.696h-2.098a1.034 1.034 0 0 1 1.09-.962zM13.71 34.492V32.57h-.767v.48a1.49 1.49 0 0 0-1.25-.56 2.01 2.01 0 0 0-2.019 2.002 2.01 2.01 0 0 0 2.018 2.003 1.49 1.49 0 0 0 1.251-.56v.48h.767v-1.923zm-3.148 0a1.207 1.207 0 0 1 1.261-1.12 1.205 1.205 0 0 1 1.158 1.225 1.206 1.206 0 0 1-1.208 1.177 1.19 1.19 0 0 1-.895-.372 1.172 1.172 0 0 1-.316-.91zm29.823-2.003a1.213 1.213 0 0 0-1.049.561v-.48h-.767v3.845h.767v-2.163c0-.641.323-1.042.848-1.042.177.007.353.034.524.08l.242-.72a2.743 2.743 0 0 0-.565-.08zm6.215 3.365a.244.244 0 0 1 .162.04c.04 0 .08.04.12.08.041.04.081.08.081.12 0 .04.04.08.04.16a.239.239 0 0 1-.04.16c-.04.04-.04.08-.08.12-.04.04-.081.081-.121.081-.04 0-.081.04-.162.04a.244.244 0 0 1-.161-.04c-.04-.04-.081-.04-.121-.08-.04-.04-.081-.08-.081-.12 0-.04-.04-.08-.04-.16a.239.239 0 0 1 .04-.16c.04-.04.04-.08.08-.12.041-.04.081-.081.122-.081.04 0 .12-.04.161-.04zm0 .68a.15.15 0 0 0 .121-.04.088.088 0 0 0 .08-.08l.082-.08c0-.04.04-.08.04-.12a.148.148 0 0 0-.04-.12.088.088 0 0 0-.081-.08l-.08-.08c-.041 0-.081-.04-.122-.04a.15.15 0 0 0-.12.04.088.088 0 0 0-.082.08l-.08.08c0 .04-.04.08-.04.12a.148.148 0 0 0 .04.12.088.088 0 0 0 .08.08l.081.08a.15.15 0 0 0 .121.04zm.04-.44a.15.15 0 0 1 .122.04c.04.04.04.04.04.08s0 .04-.04.08a.142.142 0 0 1-.081.04l.12.12h-.12l-.121-.12h-.04v.12h-.081v-.36h.202zm-.08.04v.08h.12v-.08h-.12zm-9.161-1.642V32.57h-.767v.48a1.49 1.49 0 0 0-1.25-.56 2.01 2.01 0 0 0-2.019 2.002 2.01 2.01 0 0 0 2.018 2.003 1.49 1.49 0 0 0 1.251-.56v.48h.767v-1.923zm-3.107 0a1.207 1.207 0 0 1 1.26-1.12 1.205 1.205 0 0 1 1.158 1.225 1.206 1.206 0 0 1-1.208 1.177c-.767.04-1.21-.56-1.21-1.282zm10.936 0v-3.444h-.767v2.002a1.49 1.49 0 0 0-1.25-.56 2.01 2.01 0 0 0-2.019 2.002 2.01 2.01 0 0 0 2.018 2.003 1.49 1.49 0 0 0 1.251-.56v.48h.767v-1.923zm-3.148 0a1.207 1.207 0 0 1 1.261-1.12 1.205 1.205 0 0 1 1.158 1.225 1.206 1.206 0 0 1-1.208 1.177 1.19 1.19 0 0 1-.895-.372 1.172 1.172 0 0 1-.316-.91z" id="_Compound_Path_" fill="#000"/><path id="Rectangle-path" fill="#FF5F00" d="M16.979 3.41h14.003v22.67H16.98z"/><path d="M18.432 14.746A14.42 14.42 0 0 1 23.96 3.41a14.616 14.616 0 0 0-17.224-.538C1.496 6.457-.784 13.01 1.112 19.04c1.896 6.03 7.525 10.133 13.89 10.124a14.509 14.509 0 0 0 8.958-3.084 14.42 14.42 0 0 1-5.528-11.335z" id="_Path_" fill="#EB001B"/><path d="M46.076 23.678v-.48h.201v-.081h-.484v.08h.202v.48h.08zm.968 0v-.561h-.161l-.162.4-.161-.4h-.162v.56h.121v-.44l.162.36h.12l.162-.36v.44h.081zm.444-8.932c-.006 5.513-3.18 10.54-8.175 12.951A14.618 14.618 0 0 1 24 26.081a14.412 14.412 0 0 0 5.528-11.335A14.41 14.41 0 0 0 24 3.411a14.618 14.618 0 0 1 15.312-1.617c4.996 2.411 8.169 7.439 8.175 12.952z" id="Shape" fill="#F79E1B"/></g></g></g></svg>