<svg width="18" height="23" xmlns="http://www.w3.org/2000/svg"><g id="Category" stroke="none" stroke-width="1" fill="none" fill-rule="evenodd"><g id="pinterest" transform="translate(-6 -4)"><path id="Rectangle-18" d="M0 0h30v30H0z"/><path d="M23.399 10.756c-.61-4.444-5.047-6.71-9.77-6.18-3.742.418-7.463 3.44-7.62 7.765-.098 2.637.651 4.614 3.165 5.17 1.084-1.922-.352-2.342-.577-3.736-.92-5.698 6.57-9.584 10.49-5.608 2.72 2.76.928 11.233-3.447 10.347-4.194-.838 2.053-7.58-1.29-8.906-2.72-1.078-4.167 3.288-2.877 5.46C10.719 18.801 9.09 22.317 9.75 27c2.136-1.552 2.856-4.524 3.447-7.621 1.077.652 1.654 1.332 3.02 1.441 5.055.385 7.876-5.046 7.182-10.064z" id="Fill-1" fill="#424242"/></g></g></svg>