<svg width="22" height="22" xmlns="http://www.w3.org/2000/svg" xmlns:xlink="http://www.w3.org/1999/xlink"><defs><path d="M.916 6.709C.407 6.709 0 6.278 0 5.77a.91.91 0 0 1 .916-.913h17.916L15.523 1.56a.916.916 0 0 1 0-1.294.924.924 0 0 1 1.298 0l4.912 4.87a.916.916 0 0 1 0 1.294l-4.886 4.87a.926.926 0 0 1-1.324 0 .916.916 0 0 1 0-1.294l3.309-3.297H.916zm20.143 8.57c.509 0 .916.43.941.938a.91.91 0 0 1-.916.913H3.18l3.307 3.297a.917.917 0 0 1 0 1.294.925.925 0 0 1-1.323 0L.28 16.851a.637.637 0 0 1-.127-.152c0-.026-.026-.026-.026-.05-.025-.026-.025-.077-.05-.102 0-.026 0-.051-.026-.102 0-.025-.026-.05-.026-.076C0 16.32 0 16.242 0 16.192c0-.051.025-.127.025-.178 0-.025.026-.05.026-.076 0-.026.025-.05.025-.076 0-.026.026-.076.051-.102 0-.025.026-.025.026-.05.05-.051.076-.102.127-.153l4.883-4.87a.923.923 0 0 1 1.297 0 .917.917 0 0 1 0 1.294l-3.306 3.297h17.905z" id="path-1"/></defs><g id="Category" stroke="none" stroke-width="1" fill="none" fill-rule="evenodd"><g id="product-compare" transform="translate(-4 -4)"><g id="colour-/-white" transform="translate(4 4)"><mask id="mask-2" fill="#fff"><use xlink:href="#path-1"/></mask><use id="Combined-Shape" fill="#93999D" fill-rule="nonzero" xlink:href="#path-1"/></g></g></g></svg>