<svg width="53" height="18" xmlns="http://www.w3.org/2000/svg"><defs><linearGradient x1="0%" y1="50%" x2="100%" y2="50%" id="linearGradient-1"><stop stop-color="#1C1C62" offset="0%"/><stop stop-color="#132B99" offset="100%"/></linearGradient></defs><g id="Category" stroke="none" stroke-width="1" fill="none" fill-rule="evenodd"><g id="visa" transform="translate(-3 -11)" fill-rule="nonzero"><path id="Rectangle-path" d="M.627 0h57.675v40H.627z"/><path d="M23.008 12.167l-6.891 16.282h-4.508L8.23 15.432c-.217-.816-.39-1.074-.997-1.418a17.19 17.19 0 0 0-4.204-1.375l.087-.472h7.238a1.975 1.975 0 0 1 1.95 1.675l1.777 9.409 4.42-11.084h4.508zm17.64 10.955c0-4.296-5.981-4.554-5.938-6.444 0-.602.564-1.203 1.82-1.375a8.163 8.163 0 0 1 4.205.73l.737-3.437a11.173 11.173 0 0 0-3.988-.73c-4.204 0-7.151 2.234-7.194 5.37-.044 2.363 2.123 3.652 3.727 4.425 1.603.774 2.21 1.332 2.21 2.02 0 1.074-1.343 1.59-2.557 1.59a8.783 8.783 0 0 1-4.377-1.032l-.78 3.566c1.5.597 3.107.89 4.724.86 4.464.042 7.368-2.149 7.411-5.543zm11.095 5.327h3.944l-3.423-16.282h-3.641a1.938 1.938 0 0 0-1.82 1.203l-6.415 15.08h4.464L45.72 26h5.461l.563 2.45zm-4.767-5.757l2.254-6.1 1.3 6.1h-3.554zm-17.9-10.525l-3.51 16.282h-4.248l3.51-16.282h4.248z" id="Shape" fill="url(#linearGradient-1)"/></g></g></svg>