<svg width="21" height="24" xmlns="http://www.w3.org/2000/svg"><g id="Category" stroke="none" stroke-width="1" fill="none" fill-rule="evenodd"><g id="youtube" transform="translate(-5 -3)"><path id="Rectangle-18" d="M0 0h30v30H0z"/><path d="M22.168 20.555H20.85l.007-.765a.62.62 0 0 1 .62-.618h.084c.341 0 .621.279.621.618l-.014.765zm-4.941-1.64c-.334 0-.607.226-.607.5v3.72c0 .275.273.499.607.499.336 0 .609-.224.609-.499v-3.72c0-.274-.273-.5-.61-.5zm8.023-2.08v7.078c0 1.698-1.473 3.087-3.272 3.087H8.522c-1.8 0-3.272-1.39-3.272-3.087v-7.078c0-1.698 1.471-3.088 3.272-3.088h13.456c1.8 0 3.272 1.39 3.272 3.088zM9.42 24.68v-7.456h1.667V16.12l-4.446-.006V17.2l1.388.003v7.477h1.39zm5-6.345h-1.391v3.982c0 .575.035.863-.002.965-.113.308-.62.636-.82.033-.033-.105-.004-.424-.004-.971l-.005-4.009h-1.383l.004 3.945c.001.606-.014 1.056.005 1.262.034.362.021.784.357 1.025.626.45 1.826-.068 2.125-.713l-.003.823 1.118.002v-6.344h-.002zm4.448 4.56l-.002-3.315c-.001-1.262-.947-2.018-2.23-.998l.007-2.463-1.389.002-.007 8.504 1.142-.017.104-.53c1.46 1.34 2.378.422 2.375-1.183zm4.353-.44l-1.043.006-.002.141v.582a.569.569 0 0 1-.57.564H21.4a.569.569 0 0 1-.57-.564v-1.531h2.388v-.899c0-.656-.017-1.312-.07-1.689-.172-1.187-1.839-1.376-2.682-.768-.264.19-.466.444-.583.787-.118.34-.177.807-.177 1.4v1.976c0 3.285 3.99 2.82 3.514-.005zm-5.349-10.727a.945.945 0 0 0 .335.422c.148.106.34.158.569.158.2 0 .378-.054.533-.166.153-.112.283-.277.389-.498l-.026.545h1.55V5.598h-1.22v5.13a.508.508 0 0 1-1.016 0v-5.13h-1.274v4.446c0 .567.01.944.028 1.136.017.19.06.372.132.55zm-4.698-3.724c0-.633.054-1.126.158-1.483.105-.355.296-.64.57-.855.274-.216.624-.325 1.051-.325.358 0 .665.07.922.209.259.138.457.317.595.54.14.223.236.452.288.686.05.239.077.597.077 1.08v1.668c0 .61-.025 1.061-.072 1.346a2.118 2.118 0 0 1-.306.801 1.438 1.438 0 0 1-.596.548c-.245.12-.525.177-.841.177-.353 0-.652-.048-.896-.151a1.22 1.22 0 0 1-.572-.457 2.04 2.04 0 0 1-.292-.738c-.058-.29-.086-.723-.086-1.3V8.005zm1.214 2.619c0 .373.279.678.617.678.339 0 .615-.305.615-.678v-3.51c0-.372-.276-.677-.615-.677-.338 0-.617.305-.617.678v3.509zm-4.289 1.772h1.462l.002-5.056 1.727-4.331h-1.599l-.919 3.216L9.841 3H8.258l1.838 4.342.003 5.054z" id="Fill-1" fill="#424242"/></g></g></svg>